<svg xmlns="http://www.w3.org/2000/svg" viewBox="0 0 560 320" fill="none">
  <rect width="560" height="320" fill="#eff6ff"/>
  <rect x="40" y="40" width="200" height="240" rx="12" fill="#dbeafe"/>
  <rect x="60" y="70" width="160" height="12" rx="6" fill="#93c5fd"/>
  <rect x="60" y="96" width="120" height="10" rx="5" fill="#bfdbfe"/>
  <rect x="60" y="116" width="140" height="10" rx="5" fill="#bfdbfe"/>
  <rect x="60" y="136" width="100" height="10" rx="5" fill="#bfdbfe"/>
  <rect x="60" y="180" width="80" height="28" rx="6" fill="#2563eb"/>
  <rect x="280" y="40" width="240" height="110" rx="12" fill="#e0e7ff"/>
  <rect x="300" y="65" width="200" height="12" rx="6" fill="#818cf8"/>
  <rect x="300" y="90" width="160" height="10" rx="5" fill="#c7d2fe"/>
  <rect x="280" y="170" width="240" height="110" rx="12" fill="#f0fdf4"/>
  <rect x="300" y="195" width="200" height="12" rx="6" fill="#4ade80"/>
  <rect x="300" y="220" width="160" height="10" rx="5" fill="#bbf7d0"/>
</svg>
